<?xml version="1.0" standalone="no"?>
<!DOCTYPE svg PUBLIC "-//W3C//DTD SVG 20010904//EN"
 "http://www.w3.org/TR/2001/REC-SVG-20010904/DTD/svg10.dtd">
<svg version="1.0" xmlns="http://www.w3.org/2000/svg"
 width="300.000000pt" height="300.000000pt" viewBox="0 0 300.000000 300.000000"
 preserveAspectRatio="xMidYMid meet">
<metadata>
Created by potrace 1.14, written by Peter Selinger 2001-2017
</metadata>
<g transform="translate(0.000000,300.000000) scale(0.100000,-0.100000)"
fill="#000000" stroke="none">
<path d="M863 2673 c-68 -32 -115 -110 -244 -398 -73 -162 -95 -223 -170 -465
-45 -146 -44 -145 -177 -109 -125 34 -151 35 -183 11 -13 -10 -32 -22 -42 -25
-21 -8 -15 -23 30 -75 25 -29 42 -36 146 -61 163 -40 171 -52 172 -253 0 -102
-1 -109 -25 -132 -17 -17 -56 -33 -119 -50 -110 -30 -130 -41 -170 -100 l-31
-44 47 -16 c62 -21 84 -20 167 8 97 33 141 38 160 17 24 -26 37 -71 37 -128 1
-67 -14 -106 -63 -162 -21 -24 -38 -51 -38 -60 -1 -9 -7 -33 -15 -55 l-14 -39
64 6 c51 4 71 10 96 32 42 35 73 28 119 -28 72 -87 146 -160 186 -183 23 -14
84 -36 135 -49 87 -22 109 -24 284 -21 125 3 214 9 260 20 81 18 116 25 165
32 39 5 207 62 313 105 169 68 329 201 449 370 34 49 71 92 80 95 10 3 40 -7
67 -22 45 -25 52 -27 87 -16 65 20 66 23 49 73 -9 24 -34 63 -56 85 l-41 42
68 11 c38 6 105 15 149 21 77 10 155 45 155 69 0 5 -17 24 -37 41 l-38 31 -98
-6 c-118 -7 -158 -1 -150 23 10 29 45 62 91 85 25 12 56 37 70 56 l26 33 -29
24 c-19 15 -43 24 -67 24 l-37 0 5 43 c2 23 6 52 9 64 13 56 6 309 -10 393 -3
14 -8 41 -11 60 -9 45 -8 43 -39 195 -15 72 -28 137 -30 145 -16 79 -47 174
-64 199 -49 69 -122 87 -185 46 -36 -24 -216 -239 -216 -259 0 -9 -4 -16 -8
-16 -4 0 -14 -17 -21 -37 -18 -50 -67 -101 -109 -113 -42 -11 -159 -6 -227 10
-48 12 -236 15 -283 6 -13 -3 -60 -8 -105 -11 -90 -6 -100 -2 -133 51 -11 16
-74 109 -141 205 -147 209 -185 239 -260 202z m147 -339 c36 -49 96 -136 135
-194 94 -140 97 -141 239 -104 98 25 131 28 281 30 184 2 270 -8 412 -51 57
-18 95 -24 124 -20 24 3 45 7 47 10 2 2 -1 26 -7 52 -21 92 -19 100 64 223 92
137 120 169 136 153 14 -14 75 -270 94 -398 31 -208 24 -421 -20 -572 -9 -32
-19 -68 -21 -80 -14 -76 -146 -369 -192 -428 -12 -15 -22 -33 -22 -39 0 -23
-102 -126 -168 -169 -37 -25 -96 -57 -132 -72 -76 -32 -284 -104 -320 -111
-14 -3 -47 -11 -75 -19 -184 -51 -436 -74 -572 -53 -125 20 -225 84 -269 173
-23 48 -25 59 -14 84 6 17 45 57 85 90 67 55 74 64 84 112 6 28 10 53 8 55 -1
1 -26 4 -54 5 -56 3 -71 -4 -148 -71 -26 -23 -51 -38 -55 -33 -5 4 -15 32 -24
62 -14 48 -14 57 -1 77 14 21 31 28 167 68 42 12 64 26 81 49 39 52 39 54 -4
85 -48 35 -64 35 -187 -4 -46 -14 -86 -23 -89 -20 -7 6 -7 176 0 182 1 2 27
-3 56 -11 81 -21 144 -1 153 49 7 34 -22 80 -58 93 -16 6 -50 18 -76 27 -70
26 -74 34 -55 124 9 42 19 93 22 112 10 63 45 184 67 230 11 25 31 74 43 110
22 62 124 270 147 297 17 21 45 -3 118 -103z"/>
<path d="M1295 1606 c-12 -74 -13 -84 -5 -96 11 -18 97 -4 108 18 11 24 6 80
-9 98 -7 9 -26 14 -50 12 -35 -2 -39 -5 -44 -32z"/>
<path d="M2175 1601 c-29 -6 -30 -8 -28 -61 1 -63 15 -78 67 -72 23 3 37 10
41 23 8 23 11 97 5 102 -11 10 -57 14 -85 8z"/>
<path d="M1654 1452 c-5 -4 -21 -23 -35 -42 -33 -44 -31 -91 5 -157 37 -65 43
-130 18 -179 -23 -46 -133 -152 -199 -193 -40 -25 -50 -27 -91 -19 -53 10 -82
-1 -108 -39 -12 -20 -13 -30 -4 -59 6 -18 16 -34 21 -34 5 0 9 -6 9 -14 0 -18
81 -40 144 -39 78 2 118 25 218 128 51 52 100 95 110 95 9 0 33 -13 51 -30 37
-32 110 -67 148 -70 32 -3 89 21 89 38 0 7 -11 34 -24 60 -18 35 -33 50 -59
60 -20 7 -50 26 -66 42 -27 25 -30 31 -21 55 6 15 8 30 6 34 -3 4 6 26 19 49
13 23 29 67 35 97 17 81 3 108 -71 146 -33 16 -62 30 -66 30 -9 2 -43 15 -89
34 -17 7 -35 10 -40 7z"/>
</g>
</svg>
